<?xml version="1.0" encoding="iso-8859-1"?>
<!-- Generator: Adobe Illustrator 19.0.0, SVG Export Plug-In . SVG Version: 6.00 Build 0)  -->
<svg xmlns="http://www.w3.org/2000/svg" xmlns:xlink="http://www.w3.org/1999/xlink" version="1.1" id="Layer_1" x="0px" y="0px" viewBox="0 0 512 512" style="enable-background:new 0 0 512 512;" xml:space="preserve">
<path style="fill:#E8E8E8;" d="M423.584,207.083l-43.522,32.657c-29.031,21.788-70.645,13.777-89.451-17.466  c-16.063-26.643-9.652-61.653,15.769-80.728c26.589-19.952,17.259-12.952,43.521-32.657c9.428-7.233,79.448-64.668-25.638-99.554  C245.95-12.258,164.49,4.804,102.531,51.303c-113.049,84.826-135.928,245.239-51.1,358.288  c84.828,113.05,245.239,135.926,358.288,51.099C473.2,413.069,510.845,338.965,512,259.532  C507.882,148.882,433.163,200.055,423.584,207.083z"/>
<path style="fill:#D8D8D8;" d="M280.286,365.503c-55.688-74.213-38.928-180.221,37.951-233.392  c11.28-7.808-5.359,4.557,31.663-23.222c9.428-7.233,79.448-64.668-25.638-99.554C245.949-12.258,164.489,4.804,102.53,51.303  c-113.049,84.826-135.928,245.239-51.1,358.288c96.888,129.122,287.314,137.022,394.761,17.816  C385.511,440.497,319.985,418.411,280.286,365.503z"/>
<path style="fill:#C1BFBD;" d="M86.683,400.322C-17.61,261.332,44.2,60.43,208.968,4.432  C25.341,38.986-63.595,256.299,51.431,409.591c68.209,90.903,185.283,123.483,287.314,88.666  C246.003,515.649,147.145,480.9,86.683,400.322z"/>
<circle style="fill:#D84439;" cx="222.59" cy="85.77" r="32.15"/>
<path style="fill:#C61A0C;" d="M222.589,85.771c0-11.899,6.469-22.281,16.076-27.84c-4.73-2.737-10.217-4.312-16.076-4.312  c-17.757,0-32.152,14.395-32.152,32.152c0,24.813,26.92,40.169,48.228,27.84C229.058,108.051,222.589,97.67,222.589,85.771z"/>
<circle style="fill:#CB47D6;" cx="419.52" cy="317.22" r="32.15"/>
<path style="fill:#B025BF;" d="M435.592,289.382c-21.326-12.339-48.228,3.058-48.228,27.84c0,17.758,14.395,32.152,32.151,32.152  c5.86,0,11.347-1.575,16.077-4.312C414.172,332.666,414.18,301.774,435.592,289.382z"/>
<path style="fill:#FFA92C;" d="M160.44,169.45c0,22.64-18.354,40.993-40.992,40.993c-22.643,0-40.994-18.353-40.994-40.993  s18.351-40.995,40.994-40.995C142.086,128.455,160.44,146.81,160.44,169.45z"/>
<path style="fill:#ED761D;" d="M138.221,133.011c-27.119-14.008-59.766,5.677-59.766,36.439c0,30.771,32.656,50.436,59.766,36.438  C108.632,190.61,108.634,148.287,138.221,133.011z"/>
<path style="fill:#4A94CC;" d="M367.417,399.942c0,21.374-17.327,38.7-38.698,38.7c-21.374,0-38.698-17.325-38.698-38.7  c0-21.37,17.323-38.698,38.698-38.698C350.09,361.244,367.417,378.572,367.417,399.942z"/>
<path style="fill:#237EB5;" d="M348.067,366.434c-5.694-3.295-12.297-5.19-19.348-5.19c-21.374,0-38.698,17.327-38.698,38.698  c0,29.847,32.391,48.356,58.045,33.51C322.289,418.533,322.295,381.35,348.067,366.434z"/>
<circle style="fill:#8DD83D;" cx="200.35" cy="404.6" r="43.35"/>
<path style="fill:#73BF19;" d="M200.35,404.601c0-16.045,8.722-30.044,21.676-37.542c-6.379-3.691-13.777-5.814-21.676-5.814  c-23.945,0-43.354,19.411-43.354,43.356c0,23.943,19.409,43.352,43.354,43.352c7.899,0,15.298-2.123,21.676-5.814  C209.072,434.643,200.35,420.645,200.35,404.601z"/>
<circle style="fill:#F2D422;" cx="106.68" cy="304.21" r="45.26"/>
<path style="fill:#E2BE0A;" d="M129.307,265.02c-29.981-17.35-67.885,4.275-67.885,39.188c0,34.926,37.894,56.543,67.885,39.187  C99.16,325.949,99.166,282.463,129.307,265.02z"/>
<g>
</g>
<g>
</g>
<g>
</g>
<g>
</g>
<g>
</g>
<g>
</g>
<g>
</g>
<g>
</g>
<g>
</g>
<g>
</g>
<g>
</g>
<g>
</g>
<g>
</g>
<g>
</g>
<g>
</g>
</svg>
